<?xml version="1.0" encoding="utf-8"?>
<!-- Generator: Adobe Illustrator 18.1.1, SVG Export Plug-In . SVG Version: 6.00 Build 0)  -->
<svg version="1.1" id="Layer_1" xmlns="http://www.w3.org/2000/svg" xmlns:xlink="http://www.w3.org/1999/xlink" x="0px" y="0px"
	 width="84px" height="84px" viewBox="0 0 84 84" enable-background="new 0 0 84 84" xml:space="preserve">
<path fill="#0093F0" d="M42,0C18.8,0,0,18.8,0,42s18.8,42,42,42c23.2,0,42-18.8,42-42S65.2,0,42,0z M42,80C21,80,4,63,4,42
	C4,21,21,4,42,4c21,0,38,17,38,38C80,63,63,80,42,80z"/>
<path fill="#0093F0" d="M33.3,35.9H37v-3.6c0-1.6,0-4.1,1.2-5.6c1.2-1.6,2.9-2.7,5.8-2.7c4.7,0,6.7,0.7,6.7,0.7l-0.9,5.5
	c0,0-1.6-0.4-3-0.4c-1.4,0-2.7,0.5-2.7,2v4.2h5.9l-0.4,5.4H44V60h-7V41.3h-3.7V35.9z"/>
</svg>
