<?xml version="1.0" encoding="UTF-8"?>
<svg width="256px" height="256px" viewBox="0 0 256 256" version="1.1" xmlns="http://www.w3.org/2000/svg" xmlns:xlink="http://www.w3.org/1999/xlink" style="background: #FFFFFF;">
    <!-- Generator: Sketch 42 (36781) - http://www.bohemiancoding.com/sketch -->
    <title>wtfjht-logo</title>
    <desc>Created with Sketch.</desc>
    <defs>
        <path d="M64,7.99367773 C64,3.57889143 67.5882405,0 71.9936777,0 L112.006322,0 C116.421109,0 120,3.5882405 120,7.99367773 L120,48.0063223 C120,52.4211086 116.411759,56 112.006322,56 L71.9936777,56 C67.5788914,56 64,52.4117595 64,48.0063223 L64,7.99367773 Z M128,7.99367773 C128,3.57889143 131.588241,0 135.993678,0 L176.006322,0 C180.421109,0 184,3.5882405 184,7.99367773 L184,48.0063223 C184,52.4211086 180.411759,56 176.006322,56 L135.993678,56 C131.578891,56 128,52.4117595 128,48.0063223 L128,7.99367773 Z M0,7.99367773 C0,3.57889143 3.5882405,0 7.99367773,0 L48.0063223,0 C52.4211086,0 56,3.5882405 56,7.99367773 L56,48.0063223 C56,52.4211086 52.4117595,56 48.0063223,56 L7.99367773,56 C3.57889143,56 0,52.4117595 0,48.0063223 L0,7.99367773 Z M64,71.9936777 C64,67.5788914 67.5882405,64 71.9936777,64 L112.006322,64 C116.421109,64 120,67.5882405 120,71.9936777 L120,112.006322 C120,116.421109 116.411759,120 112.006322,120 L71.9936777,120 C67.5788914,120 64,116.411759 64,112.006322 L64,71.9936777 Z M128,71.9936777 C128,67.5788914 131.588241,64 135.993678,64 L176.006322,64 C180.421109,64 184,67.5882405 184,71.9936777 L184,112.006322 C184,116.421109 180.411759,120 176.006322,120 L135.993678,120 C131.578891,120 128,116.411759 128,112.006322 L128,71.9936777 Z M0,71.9936777 C0,67.5788914 3.5882405,64 7.99367773,64 L48.0063223,64 C52.4211086,64 56,67.5882405 56,71.9936777 L56,112.006322 C56,116.421109 52.4117595,120 48.0063223,120 L7.99367773,120 C3.57889143,120 0,116.411759 0,112.006322 L0,71.9936777 Z" id="path-1"></path>
    </defs>
    <g id="Logos" stroke="none" stroke-width="1" fill="none" fill-rule="evenodd">
        <g id="wtfjht-logo">
            <g id="Group-2" transform="translate(36.000000, 68.000000)">
                <g id="Group">
                    <mask id="mask-2" fill="white">
                        <use xlink:href="#path-1"></use>
                    </mask>
                    <g id="Mask"></g>
                    <rect id="Rectangle-6" fill="#E0162B" mask="url(#mask-2)" x="64" y="0" width="56" height="56"></rect>
                    <rect id="Rectangle-6" fill="#E0162B" mask="url(#mask-2)" x="128" y="0" width="56" height="56"></rect>
                    <rect id="Rectangle-6" fill="#0052A5" mask="url(#mask-2)" x="0" y="0" width="56" height="56"></rect>
                    <rect id="Rectangle-6" fill="#E0162B" mask="url(#mask-2)" x="64" y="64" width="56" height="56"></rect>
                    <rect id="Rectangle-6" fill="#E0162B" mask="url(#mask-2)" x="128" y="64" width="56" height="56"></rect>
                    <rect id="Rectangle-6" fill="#E0162B" mask="url(#mask-2)" x="0" y="64" width="56" height="56"></rect>
                </g>
                <path d="M96,16 L107.999974,16 C110.203575,16 112,14.209139 112,12 C112,9.79535615 110.209128,8 107.999974,8 L76.0000255,8 C73.7964248,8 72,9.790861 72,12 C72,14.2046438 73.7908724,16 76.0000255,16 L88,16 L88,43.9999745 C88,46.2035752 89.790861,48 92,48 C94.2046438,48 96,46.2091276 96,43.9999745 L96,16 Z" id="Combined-Shape" fill="#FFFFFF"></path>
                <rect id="Rectangle-7" fill="#FFFFFF" x="140" y="24" width="24" height="8" rx="4"></rect>
                <path d="M144,44 L144,14.0017433 C144,12.896211 144.897026,12 146.004947,12 L168,12" id="Path-3" stroke="#FFFFFF" stroke-width="8" stroke-linecap="round" stroke-linejoin="round"></path>
                <path d="M84,88 L84,76.0000255 C84,73.7964248 82.209139,72 80,72 C77.7953562,72 76,73.7908724 76,76.0000255 L76,107.999974 C76,110.203575 77.790861,112 80,112 C82.2046438,112 84,110.209128 84,107.999974 L84,96 L100,96 L100,107.999974 C100,110.203575 101.790861,112 104,112 C106.204644,112 108,110.209128 108,107.999974 L108,76.0000255 C108,73.7964248 106.209139,72 104,72 C101.795356,72 100,73.7908724 100,76.0000255 L100,88 L84,88 Z" id="Combined-Shape" fill="#FFFFFF"></path>
                <path d="M160,80 L171.999974,80 C174.203575,80 176,78.209139 176,76 C176,73.7953562 174.209128,72 171.999974,72 L140.000026,72 C137.796425,72 136,73.790861 136,76 C136,78.2046438 137.790872,80 140.000026,80 L152,80 L152,107.999974 C152,110.203575 153.790861,112 156,112 C158.204644,112 160,110.209128 160,107.999974 L160,80 Z" id="Combined-Shape" fill="#FFFFFF"></path>
                <path d="M40,108 L40,88 C40,81.372583 34.627417,76 28,76 C21.372583,76 16,81.372583 16,88" id="Oval" stroke="#FFFFFF" stroke-width="8" stroke-linecap="round" stroke-linejoin="round" transform="translate(28.000000, 92.000000) scale(1, -1) translate(-28.000000, -92.000000) "></path>
                <polyline id="Path-4" stroke="#FFFFFF" stroke-width="8" stroke-linecap="round" stroke-linejoin="round" points="12 12 16 44 28 28 40 44 44 12"></polyline>
            </g>
        </g>
    </g>
</svg>