<?xml version="1.0" encoding="utf-8"?>
<!-- Generator: Adobe Illustrator 18.1.1, SVG Export Plug-In . SVG Version: 6.00 Build 0)  -->
<svg version="1.1" id="Layer_1" xmlns="http://www.w3.org/2000/svg" xmlns:xlink="http://www.w3.org/1999/xlink" x="0px" y="0px"
	 width="84px" height="84px" viewBox="0 0 84 84" enable-background="new 0 0 84 84" xml:space="preserve">
<path fill="#0093F0" d="M42,0C18.8,0,0,18.8,0,42s18.8,42,42,42c23.2,0,42-18.8,42-42S65.2,0,42,0z M42,80C21,80,4,63,4,42
	C4,21,21,4,42,4c21,0,38,17,38,38C80,63,63,80,42,80z"/>
<g>
	<ellipse fill="#0093F0" cx="34.5" cy="51.6" rx="4" ry="4"/>
	<path fill="#0093F0" d="M49.7,55.6h-5.6c0-7.6-6.1-13.7-13.6-13.7l0,0v-5.7C41.1,36.2,49.7,44.9,49.7,55.6z"/>
	<path fill="#0093F0" d="M53.7,55.6c0-12.9-10.4-23.4-23.2-23.4v-5.9c16,0,28.9,13.1,28.9,29.3H53.7z"/>
</g>
</svg>
