<?xml version="1.0" encoding="utf-8"?>
<!-- Generator: Adobe Illustrator 18.1.1, SVG Export Plug-In . SVG Version: 6.00 Build 0)  -->
<svg version="1.1" id="Layer_1" xmlns="http://www.w3.org/2000/svg" xmlns:xlink="http://www.w3.org/1999/xlink" x="0px" y="0px"
	 width="84px" height="84px" viewBox="0 0 84 84" enable-background="new 0 0 84 84" xml:space="preserve">
<path fill="#0093F0" d="M42,0C18.8,0,0,18.8,0,42s18.8,42,42,42c23.2,0,42-18.8,42-42S65.2,0,42,0z M42,80C21,80,4,63,4,42
	C4,21,21,4,42,4c21,0,38,17,38,38C80,63,63,80,42,80z"/>
<path fill="#0093F0" d="M42,22c-11.3,0-20.5,9.2-20.5,20.5c0,9.1,5.9,16.7,14,19.4c1,0.2,1.4-0.5,1.4-1c0-0.5,0-1.8,0-3.5
	c-5.7,1.2-6.9-2.7-6.9-2.7c-0.9-2.4-2.3-3-2.3-3c-1.8-1.3,0.1-1.2,0.1-1.2c2.1,0.2,3.2,2.1,3.2,2.1c1.8,3.1,4.8,2.2,6,1.7
	c0.2-1.3,0.7-2.2,1.3-2.7c-4.6-0.5-9.3-2.3-9.3-10.1c0-2.3,0.8-4.1,2.1-5.5c-0.2-0.5-0.9-2.6,0.2-5.4c0,0,1.7-0.5,5.6,2.1
	c1.6-0.5,3.4-0.7,5.1-0.7s3.5,0.2,5.1,0.7c3.9-2.7,5.6-2.1,5.6-2.1c1.1,2.8,0.4,4.9,0.2,5.4c1.3,1.4,2.1,3.3,2.1,5.5
	c0,7.9-4.8,9.6-9.3,10.1c0.7,0.6,1.4,1.9,1.4,3.8c0,2.7,0,5,0,5.6c0,0.5,0.4,1.2,1.4,1c8.2-2.8,14.1-10.5,14.1-19.5
	C62.5,31.2,53.3,22,42,22z"/>
</svg>
